{"title":"Laal Rang 2016 Movies DVDScr XviD New Source with Sample ~ ☻rDX☻","uid":14414078,"size":739506772,"categoryP":"video","categoryS":"movies","magnet":"?xt=urn:btih:b2b4d423737f1556dcecd4aa5fceb7c4ae9ee378&amp;dn=Laal+Rang+2016+Movies+DVDScr+XviD+New+Source+with+Sample+%7E+%E2%98%BBrDX%E2%98%BB&amp;tr=udp%3A%2F%2Ftracker.leechers-paradise.org%3A6969&amp;tr=udp%3A%2F%2Fzer0day.ch%3A1337&amp;tr=udp%3A%2F%2Fopen.demonii.com%3A1337&amp;tr=udp%3A%2F%2Ftracker.coppersurfer.tk%3A6969&amp;tr=udp%3A%2F%2Fexodus.desync.com%3A6969","seeders":1,"leechers":0,"uploader":"basicssom","files":2,"time":1461474083,"description":"----------------------------------------------------------------\r\nLaal Rang 2016 Hindi Movies DVDScr XviD AAC New Source with Sample ~ ☻rDX☻\r\n\r\nSCREEN SHOTS &amp; POSTER:\r\n  \nhttp://mobileshosting.com/2016/4/best/index.htm  \nhttp://mobileshosting.com/2016/4/best/1.html  \nhttp://mobileshosting.com/2016/4/best/2.html  \nhttp://mobileshosting.com/2016/4/best/3.html  \nhttp://mobileshosting.com/2016/4/best/4.html  \nhttp://mobileshosting.com/2016/4/best/5.html  \nhttp://mobileshosting.com/2016/4/best/6.html  \nhttp://mobileshosting.com/2016/4/best/7.html  \nhttp://mobileshosting.com/2016/4/best/8.html  \nhttp://mobileshosting.com/2016/4/best/9.html  \nhttp://mobileshosting.com/2016/4/best/10.html\r\n\r\nFormat                                   : Matroska\r\nFormat version                           : Version 4 / Version 2\r\nFile size                                : 698 MiB\r\nDuration                                 : 2h 18mn\r\nOverall bit rate mode                    : Variable\r\nOverall bit rate                         : 702 Kbps\r\nMovie name                               : Laal Rang 2016 Hindi Movies DVDScr XviD AAC New Source ☻rDX☻\r\n\r\nVideo\r\nID                                       : 1\r\nFormat                                   : MPEG-4 Visual\r\nFormat profile                           : Advanced   \r\nFormat settings, BVOP                    : Yes\r\nFormat settings, QPel                    : No\r\nFormat settings, GMC                     : No warppoints\r\nFormat settings, Matrix                  : Default (H.263)\r\nCodec ID                                 : V_MS/VFW/FOURCC / XVID\r\nCodec ID/Hint                            : XviD\r\nDuration                                 : 2h 18mn\r\nBit rate                                 : 608 Kbps\r\nWidth                                    : 656 pixels\r\nHeight                                   : 272 pixels\r\nDisplay aspect ratio                     : 2.40:1\r\nFrame rate mode                          : Constant\r\nFrame rate                               : 29.970 fps\r\nColor space                              : YUV\r\nChroma subsampling                       : 4:2:0\r\nBit depth                                : 8 bits\r\nScan type                                : Progressive\r\nCompression mode                         : Lossy\r\nBits/(Pixel*Frame)                       : 0.114\r\nStream size                              : 605 MiB (87%)\r\nTitle                                    : ☻rDX☻\r\nWriting library                          : XviD 67\r\nDefault                                  : Yes\r\nForced                                   : No\r\n\r\nAudio\r\nID                                       : 2\r\nFormat                                   : MPEG Audio\r\nFormat version                           : Version 1\r\nFormat profile                           : Layer 3\r\nMode                                     : Joint stereo\r\nMode extension                           : MS Stereo\r\nCodec ID                                 : A_MPEG/L3\r\nCodec ID/Hint                            : MP3\r\nDuration                                 : 2h 15mn\r\nBit rate mode                            : Variable\r\nBit rate                                 : 80.0 Kbps\r\nChannel(s)                               : 2 channels\r\nSampling rate                            : 32.0 KHz\r\nCompression mode                         : Lossy\r\nStream size                              : 77.6 MiB (11%)\r\nTitle                                    : ☻rDX☻\r\nWriting library                          : LAME3.99r\r\nEncoding settings                        : -m j -V 4 -q 2 -lowpass 13.5 --abr 80\r\nDefault                                  : Yes\r\nForced                                   : No\r\n\r\nIMDB \nhttp://www.imdb.com/title/tt5600714/","torrent":{"xt":"urn:btih:b2b4d423737f1556dcecd4aa5fceb7c4ae9ee378","amp;dn":"Laal+Rang+2016+Movies+DVDScr+XviD+New+Source+with+Sample+%7E+%E2%98%BBrDX%E2%98%BB","amp;tr":["udp%3A%2F%2Ftracker.leechers-paradise.org%3A6969","udp%3A%2F%2Fzer0day.ch%3A1337","udp%3A%2F%2Fopen.demonii.com%3A1337","udp%3A%2F%2Ftracker.coppersurfer.tk%3A6969","udp%3A%2F%2Fexodus.desync.com%3A6969"],"infoHash":"b2b4d423737f1556dcecd4aa5fceb7c4ae9ee378","infoHashBuffer":{"type":"Buffer","data":[178,180,212,35,115,127,21,86,220,236,212,170,95,206,183,196,174,158,227,120]},"announce":[],"urlList":[]}}